<svg width="46" height="46" viewBox="0 0 46 46" fill="none" xmlns="http://www.w3.org/2000/svg">
<path fill-rule="evenodd" clip-rule="evenodd" d="M44.0001 23C44.0001 34.598 34.5981 44 23.0001 44C11.4021 44 2.00012 34.598 2.00012 23C2.00012 11.402 11.4021 2 23.0001 2C34.5981 2 44.0001 11.402 44.0001 23ZM46.0001 23C46.0001 35.7025 35.7027 46 23.0001 46C10.2976 46 0.00012207 35.7025 0.00012207 23C0.00012207 10.2975 10.2976 0 23.0001 0C35.7027 0 46.0001 10.2975 46.0001 23ZM23.5086 14H22.8306V23.4915H13.0001V24.1695H22.8306V34H23.5086V24.1695H33.0001V23.4915H23.5086V14Z" fill="white"/>
</svg>
