<svg width="31" height="32" viewBox="0 0 31 32" fill="none" xmlns="http://www.w3.org/2000/svg">
<path fill-rule="evenodd" clip-rule="evenodd" d="M4.21411 10.3125C4.21411 4.52938 9.33803 0 15.4815 0C21.6943 0 26.7488 4.62619 26.7488 10.3125C26.7488 12.4567 26.0326 14.5175 24.6762 16.2726L16.3437 28.1616C15.9421 28.7365 15.0217 28.7376 14.6192 28.1616L6.32275 16.3129C4.93645 14.4745 4.21411 12.5126 4.21411 10.3125ZM10.3599 10.3125C10.3599 12.8971 12.6576 15 15.4815 15C18.3053 15 20.603 12.8971 20.603 10.3125C20.603 7.72794 18.3053 5.625 15.4815 5.625C12.6576 5.625 10.3599 7.72794 10.3599 10.3125ZM18.3313 28.9239L23.4891 21.5435C28.0401 22.5048 30.846 24.2678 30.846 26.375C30.846 30.0289 22.9297 32 15.4815 32C8.03326 32 0.116882 30.0289 0.116882 26.375C0.116882 24.2693 2.91897 22.5073 7.46443 21.5454L12.6306 28.9257C13.9593 30.8228 16.9962 30.829 18.3313 28.9239Z" fill="#CD06FF"/>
</svg>
