<svg width="36" height="24" viewBox="0 0 36 24" fill="none" xmlns="http://www.w3.org/2000/svg">
<path fill-rule="evenodd" clip-rule="evenodd" d="M16.7934 14.2506C14.3187 12.2103 5.89873 5.66669 1.10021 1.94725C0.80145 1.71612 0.755902 1.30988 0.997775 1.02738C1.55684 0.374375 2.39056 0 3.28396 0H32.4197C33.3132 0 34.1468 0.374375 34.706 1.02731C34.9478 1.30987 34.9023 1.71612 34.6035 1.94725C29.8049 5.66669 21.385 12.2109 18.9082 14.2533C18.5767 14.5273 18.221 14.666 17.8518 14.666C17.4819 14.666 17.1256 14.526 16.7934 14.2506ZM34.1341 4.05916C34.3489 3.89116 34.6526 3.85279 34.9108 3.96279C35.1683 4.07154 35.3333 4.30785 35.3333 4.5676V21.3332C35.3333 22.804 34.0267 23.9999 32.4198 23.9999H3.28396C1.67703 23.9999 0.370361 22.804 0.370361 21.3332V4.5676C0.370361 4.30785 0.535411 4.07216 0.792853 3.96273C1.04893 3.85404 1.35335 3.8911 1.56962 4.0591C5.91363 7.42891 13.5405 13.3632 15.8181 15.2414C17.0202 16.2336 18.6847 16.2336 19.8841 15.2427C22.0209 13.4804 28.8126 8.18804 34.1341 4.05916Z" fill="#CD06FF"/>
</svg>
