<svg width="29" height="26" viewBox="0 0 29 26" fill="none" xmlns="http://www.w3.org/2000/svg">
<path fill-rule="evenodd" clip-rule="evenodd" d="M28.0494 12.6654H25.1358C25.1358 7.25741 20.8412 3.33341 14.9237 3.33341V0.666748C22.4072 0.666748 28.0494 5.82541 28.0494 12.6654ZM19.3086 12.6667C19.3086 9.86266 18.0019 8.66666 14.9382 8.66666V5.99999C19.6364 5.99999 22.2222 8.36666 22.2222 12.6667H19.3086ZM18.8975 15.5776C19.2756 15.5669 19.6435 15.6911 19.9234 15.924L25.8438 20.852C26.1242 21.0855 26.2942 21.4098 26.3176 21.7561C26.341 22.1024 26.2159 22.4434 25.9691 22.7067L23.2594 25.6013C23.0079 25.8329 22.6716 25.9711 22.3154 25.9893C22.2674 25.992 22.0867 26 21.7924 26C19.7792 26 12.469 25.6093 6.63309 20.2693C-0.0564944 14.144 0.360148 6.24799 0.381999 5.91466C0.402277 5.58859 0.552606 5.28068 0.804469 5.04933L3.9657 2.56799C4.25356 2.3422 4.62625 2.22801 5.00462 2.24967C5.38298 2.27133 5.73722 2.42714 5.9921 2.68399L11.3749 8.10133C11.6297 8.35738 11.7656 8.69412 11.7539 9.04027C11.7422 9.38642 11.5839 9.71483 11.3123 9.95599L7.73005 13.148C7.88593 13.9107 8.41183 15.4587 10.1483 17.0493C11.8848 18.6347 13.5718 19.116 14.4109 19.2627L17.897 15.9813C18.1607 15.7331 18.5194 15.5883 18.8975 15.5776Z" fill="#CD06FF"/>
</svg>
