<svg width="50" height="50" viewBox="0 0 50 50" fill="none" xmlns="http://www.w3.org/2000/svg">
<path fill-rule="evenodd" clip-rule="evenodd" d="M39.0626 4.33079C34.919 1.50262 30.0173 -0.00698868 25.0005 2.43241e-05C11.196 2.43241e-05 -0.000143311 11.1981 -0.000143311 25C-0.0019826 27.1334 0.269676 29.2582 0.808189 31.3224H11.7101C14.6261 31.3224 16.8351 31.3224 16.8351 29.3506C16.8351 27.6762 15.8166 27.5175 13.3315 27.1303C12.8027 27.0479 12.2075 26.9552 11.5415 26.8353C6.8819 25.9994 5.89665 22.6289 5.89665 20.3289C5.89665 15.834 9.59088 12.9994 14.0441 12.9994H26.3447C30.1242 12.9994 33.0261 15.3846 33.0261 21.1186V28.3013C33.0261 29.9628 34.3838 31.3224 36.0447 31.3224C37.7037 31.3224 39.0626 29.9628 39.0626 28.3013V4.33079ZM49.9999 24.9999C50.0085 19.4463 48.1583 14.0494 44.7441 9.66919H44.7435V28.1243C44.7435 33.5955 40.548 36.364 36.0441 36.364C31.6159 36.364 27.3435 33.5955 27.3435 28.1243V20.5685C27.3435 18.275 24.8711 17.898 22.7692 17.898H15.1858C12.8057 17.898 11.5051 18.4878 11.5051 20.1089C11.5051 21.3651 13.0295 21.6139 14.9401 21.9258C18.1473 22.4493 22.4429 23.1505 22.4429 29.0923C22.4429 33.566 18.816 36.3647 13.6237 36.3647H2.72751C6.86597 44.4576 15.2871 49.9999 25.0006 49.9999C38.805 49.9999 49.9999 38.8051 49.9999 24.9999Z" fill="white"/>
</svg>
